<svg width="32" height="32" viewBox="0 0 32 32" fill="none" xmlns="http://www.w3.org/2000/svg">
<path d="M15.097 8.98291C14.6 8.98291 14.197 9.38591 14.197 9.88291V15.9999C14.197 16.2789 14.327 16.5419 14.548 16.7129L18.574 19.8179C18.738 19.9439 18.931 20.0059 19.123 20.0059C19.393 20.0059 19.659 19.8849 19.837 19.6549C20.141 19.2609 20.067 18.6959 19.674 18.3919L15.998 15.5569V9.88391C15.997 9.38691 15.594 8.98291 15.097 8.98291Z" fill="white"/>
<path d="M29.559 12.726C29.169 12.415 28.604 12.483 28.295 12.872L27.828 13.461C26.635 7.52498 21.341 3.00098 15.099 3.00098C7.93198 3.00098 2.09998 8.83298 2.09998 16C2.09998 23.167 7.93198 28.999 15.099 28.999C19.911 28.999 24.304 26.362 26.565 22.117C26.799 21.679 26.633 21.134 26.194 20.9C25.756 20.666 25.21 20.834 24.977 21.271C23.029 24.927 19.245 27.198 15.099 27.198C8.92398 27.198 3.89998 22.175 3.89998 16C3.89998 9.82498 8.92398 4.80198 15.099 4.80198C20.428 4.80198 24.959 8.62798 26.041 13.674L25.446 13.203C25.056 12.891 24.491 12.96 24.182 13.349C23.873 13.738 23.939 14.304 24.328 14.613L26.623 16.431C26.788 16.563 26.985 16.626 27.181 16.626C27.447 16.626 27.709 16.509 27.887 16.284L29.705 13.989C30.014 13.6 29.948 13.034 29.559 12.726Z" fill="white"/>
</svg>
