<svg width="126" height="101" viewBox="0 0 126 101" fill="none" xmlns="http://www.w3.org/2000/svg">
<path d="M71.6206 19.8666C71.6206 18.1468 72.1262 16.4655 73.0734 15.0355C74.0207 13.6055 75.367 12.491 76.9423 11.8328C78.5175 11.1747 80.2508 11.0025 81.9231 11.338C83.5953 11.6735 85.1314 12.5017 86.337 13.7178C87.5426 14.9339 88.3637 16.4834 88.6963 18.1702C89.0289 19.857 88.8582 21.6054 88.2057 23.1943C87.5533 24.7832 86.4483 26.1413 85.0307 27.0968C83.613 28.0523 81.9463 28.5623 80.2413 28.5623C77.9549 28.5623 75.7622 27.6462 74.1455 26.0154C72.5288 24.3846 71.6206 22.1729 71.6206 19.8666ZM101.793 54.6494C96.8013 54.6422 91.9633 56.3903 88.1115 59.5929L70.9779 39.0696C70.7856 38.8392 70.5481 38.6517 70.2802 38.5189C70.0124 38.386 69.7201 38.3107 69.4219 38.2978C69.1237 38.2849 68.826 38.3346 68.5479 38.4437C68.2697 38.5529 68.017 38.7191 67.8059 38.9319L54.3792 52.4755L40.9604 35.0728C40.7611 34.8143 40.5065 34.6046 40.2156 34.4592C39.9246 34.3139 39.6049 34.2368 39.2803 34.2336C38.9556 34.2304 38.6345 34.3012 38.3408 34.4408C38.0471 34.5803 37.7884 34.785 37.5841 35.0395L5.18737 75.4074C4.95926 75.6917 4.81561 76.0353 4.77304 76.3985C4.73048 76.7617 4.79074 77.1297 4.94686 77.4598C5.10298 77.7899 5.34857 78.0687 5.65522 78.2638C5.96186 78.459 6.31703 78.5626 6.67962 78.5626H80.349C80.7661 82.7485 82.3782 86.7223 84.99 90.0022C87.6017 93.2822 91.1008 95.7272 95.0628 97.0409C99.0249 98.3546 103.28 98.4804 107.311 97.4032C111.343 96.3259 114.978 94.0919 117.776 90.972C120.574 87.852 122.414 83.9803 123.073 79.8263C123.733 75.6723 123.183 71.4145 121.491 67.5693C119.799 63.7242 117.038 60.4568 113.541 58.1635C110.045 55.8702 105.964 54.6495 101.793 54.6494Z" fill="#0277FA" fill-opacity="0.08"/>
<path d="M108.569 67.9819L101.711 74.8983L94.8539 67.9819L92.5684 70.2874L99.425 77.2037L92.5684 84.1201L94.8539 86.4255L101.711 79.5092L108.569 86.4255L110.854 84.1201L103.998 77.2037L110.854 70.2874L108.569 67.9819Z" fill="#343F53" fill-opacity="0.66"/>
<path d="M125.5 76.3885C125.502 82.3518 123.294 88.1005 119.31 92.5062C115.326 96.912 109.853 99.6565 103.966 100.201C98.0792 100.746 92.2028 99.051 87.4907 95.4497C82.7787 91.8484 79.5713 86.6005 78.4981 80.7363H6.96552C5.25133 80.7344 3.6079 80.0467 2.39579 78.824C1.18367 77.6014 0.501882 75.9436 0.5 74.2145V6.82281C0.501882 5.0937 1.18367 3.43597 2.39579 2.21331C3.6079 0.990648 5.25133 0.302924 6.96552 0.301025H97.4828C99.1969 0.302924 100.84 0.990648 102.052 2.21331C103.265 3.43597 103.946 5.0937 103.948 6.82281V52.5855C109.834 53.1331 115.306 55.8766 119.292 60.2791C123.278 64.6816 125.492 70.4262 125.5 76.3885ZM35.83 33.7973C36.2462 33.2724 36.7773 32.852 37.3818 32.5691C37.9862 32.2861 38.6474 32.1484 39.3135 32.1667C39.9796 32.185 40.6324 32.3589 41.2207 32.6746C41.8089 32.9903 42.3166 33.4393 42.7039 33.9862L54.3849 49.3966L66.2401 37.4382C66.6654 37.0018 67.1788 36.6627 67.7455 36.444C68.3122 36.2254 68.9188 36.1322 69.5244 36.1708C70.1294 36.205 70.7205 36.3671 71.2593 36.6467C71.7981 36.9264 72.2726 37.3172 72.6519 37.7939L89.214 56.1549C92.3597 54.1499 95.9322 52.9266 99.6379 52.5855V6.82281C99.6374 6.24642 99.4101 5.69381 99.0061 5.28624C98.602 4.87868 98.0542 4.64945 97.4828 4.64888H6.96552C6.39416 4.64963 5.84641 4.8789 5.4424 5.28643C5.03839 5.69396 4.81109 6.24647 4.81034 6.82281V72.9102L35.83 33.7973ZM69.4144 76.3885L39.2373 36.5699L7.57263 76.3885H69.4144ZM85.778 58.8086L69.375 40.6174L57.0317 52.8901L74.8422 76.3885H78.0862C78.0881 73.0801 78.773 69.8084 80.0972 66.7817C81.4215 63.7551 83.3563 61.0397 85.778 58.8086ZM121.19 76.3885C121.19 72.5188 120.052 68.736 117.921 65.5185C115.789 62.301 112.76 59.7933 109.216 58.3124C105.672 56.8316 101.772 56.4441 98.009 57.1991C94.2465 57.954 90.7903 59.8174 88.0777 62.5537C85.365 65.2899 83.5177 68.7761 82.7692 72.5715C82.0208 76.3668 82.4049 80.3007 83.873 83.8758C85.3411 87.4509 87.8272 90.5066 91.017 92.6565C94.2067 94.8063 97.9568 95.9538 101.793 95.9538C106.936 95.9481 111.866 93.8849 115.502 90.2169C119.139 86.5489 121.184 81.5757 121.19 76.3885ZM69.4655 19.8664C69.4655 17.7166 70.0975 15.615 71.2816 13.8275C72.4656 12.04 74.1486 10.6468 76.1176 9.82413C78.0867 9.00144 80.2533 8.78618 82.3436 9.20559C84.434 9.625 86.354 10.6602 87.8611 12.1804C89.3681 13.7005 90.3944 15.6373 90.8102 17.7458C91.226 19.8543 91.0126 22.0398 90.197 24.026C89.3814 26.0122 88.0002 27.7098 86.2281 28.9041C84.456 30.0985 82.3726 30.736 80.2414 30.736C77.3845 30.7326 74.6455 29.5863 72.6254 27.5486C70.6053 25.5109 69.4689 22.7481 69.4655 19.8664ZM73.7759 19.8664C73.7759 21.1563 74.1551 22.4172 74.8655 23.4897C75.5759 24.5622 76.5857 25.3981 77.7671 25.8917C78.9486 26.3853 80.2485 26.5145 81.5027 26.2628C82.7569 26.0112 83.909 25.3901 84.8132 24.478C85.7174 23.5659 86.3332 22.4038 86.5827 21.1387C86.8321 19.8736 86.7041 18.5623 86.2147 17.3706C85.7254 16.1789 84.8967 15.1603 83.8334 14.4437C82.7702 13.7271 81.5201 13.3446 80.2414 13.3446C78.5272 13.3465 76.8838 14.0342 75.6716 15.2569C74.4595 16.4795 73.7777 18.1373 73.7759 19.8664Z" fill="#343F53" fill-opacity="0.66"/>
</svg>
